<svg width="116" height="59" viewBox="0 0 116 59" fill="none" xmlns="http://www.w3.org/2000/svg">
<path d="M14.679 5.25063C13.7855 5.25063 13.0835 5.42138 12.5729 5.76289C12.1049 6.10439 11.7645 6.74471 11.5518 7.68385C11.3816 8.62299 11.2965 10.0317 11.2965 11.91V19.4017C11.2965 21.4081 11.0625 23.0516 10.5944 24.3322C10.169 25.6128 9.6371 26.616 8.99888 27.3417C8.36067 28.0247 7.72245 28.5583 7.08423 28.9425C7.6799 29.3267 8.29684 29.8816 8.93506 30.6073C9.57328 31.2903 10.1264 32.2081 10.5944 33.3607C11.0625 34.5133 11.2965 35.9647 11.2965 37.7149V46.1031C11.2965 47.9387 11.3816 49.326 11.5518 50.2652C11.7645 51.247 12.1049 51.9087 12.5729 52.2502C13.0835 52.5917 13.7855 52.7624 14.679 52.7624H17.4872V58.0131H13.4026C12.3389 58.0131 11.3177 57.9704 10.3391 57.885C9.36054 57.8423 8.46704 57.5862 7.65863 57.1166C6.89276 56.6471 6.27582 55.8146 5.80779 54.6194C5.33976 53.4668 5.10575 51.7593 5.10575 49.4968V39.3797C5.10575 38.1418 4.93556 36.9252 4.59517 35.7299C4.25479 34.5346 3.70167 33.5315 2.93581 32.7204C2.21249 31.9093 1.23389 31.5038 0 31.5038V26.2532C1.23389 26.2105 2.21249 25.8049 2.93581 25.0365C3.70167 24.2255 4.25479 23.2223 4.59517 22.027C4.93556 20.7891 5.10575 19.5511 5.10575 18.3132V7.68385C5.10575 5.67751 5.33976 4.14074 5.80779 3.07354C6.27582 2.00634 6.89276 1.2593 7.65863 0.832418C8.46704 0.405538 9.36054 0.170754 10.3391 0.128066C11.3603 0.0426888 12.3814 0 13.4026 0H17.4872V5.25063H14.679Z" fill="url(#paint0_linear_72_56)"/>
<path d="M24.3324 28.8167C24.3324 28.149 24.5751 27.5876 25.0607 27.1324C25.5766 26.6468 26.1229 26.404 26.6995 26.404C27.3065 26.404 27.8527 26.6316 28.3383 27.0868C28.8239 27.5421 29.0667 28.1187 29.0667 28.8167C29.0667 29.545 28.8239 30.1368 28.3383 30.592C27.8527 31.0169 27.3065 31.2293 26.6995 31.2293C26.1229 31.2293 25.5766 31.0169 25.0607 30.592C24.5751 30.1368 24.3324 29.545 24.3324 28.8167ZM28.2473 38.786C27.5796 40.3641 26.912 41.9271 26.2443 43.4748C25.607 45.0529 24.9545 46.6462 24.2868 48.2547H20.8271C21.4341 46.6766 22.0259 45.0985 22.6025 43.5204C23.2095 41.9422 23.8013 40.3641 24.3779 38.786H28.2473Z" fill="#D9D9D9"/>
<path d="M35.582 45.8875C36.2193 45.8875 36.7049 45.7661 37.0387 45.5233C37.3726 45.2805 37.6002 44.8101 37.7216 44.1121C37.8733 43.4445 37.9492 42.4582 37.9492 41.1532V35.1898C37.9492 33.9152 38.1161 32.8682 38.4499 32.0487C38.8141 31.2294 39.2238 30.5769 39.679 30.0913C40.1646 29.6057 40.5895 29.2567 40.9537 29.0443C40.5895 28.7408 40.1646 28.3463 39.679 27.8607C39.1935 27.3751 38.7838 26.7227 38.4499 25.9033C38.1161 25.0535 37.9492 24.0065 37.9492 22.7622V16.7988C37.9492 15.4635 37.8733 14.462 37.7216 13.7943C37.6002 13.1267 37.3726 12.6866 37.0387 12.4742C36.7049 12.2314 36.2193 12.11 35.582 12.11H33.5335V8.3772H36.4014C37.1298 8.3772 37.843 8.39237 38.541 8.42272C39.239 8.45307 39.8763 8.61998 40.4529 8.92346C41.0295 9.22695 41.4848 9.75804 41.8186 10.5167C42.1828 11.2754 42.3648 12.368 42.3648 13.7943V20.9869C42.3648 21.5938 42.4104 22.2615 42.5014 22.9898C42.6228 23.6878 42.8049 24.3555 43.0477 24.9928C43.3208 25.6301 43.7002 26.1612 44.1857 26.5861C44.6713 26.9806 45.2783 27.193 46.0066 27.2234V30.9562C45.2783 30.9562 44.6713 31.1687 44.1857 31.5935C43.7002 32.0184 43.3208 32.5495 43.0477 33.1868C42.8049 33.7938 42.6228 34.4614 42.5014 35.1898C42.4104 35.8878 42.3648 36.5554 42.3648 37.1928V44.1577C42.3648 45.584 42.1979 46.6766 41.8641 47.4353C41.5303 48.194 41.0751 48.7251 40.4984 49.0285C39.9218 49.332 39.2845 49.4989 38.5865 49.5293C37.8885 49.59 37.1601 49.6203 36.4014 49.6203H33.5335V45.8875H35.582Z" fill="#D9D9D9"/>
<path d="M69.5266 9.54653V24.0065H67.6066V17.6665H60.0266V24.0065H58.0866V9.54653H60.0266V15.8265H67.6066V9.54653H69.5266ZM73.2321 15.7265H75.0921V24.0065H73.2321V15.7265ZM73.0921 12.7265C73.0921 12.4332 73.2054 12.1865 73.4321 11.9865C73.6721 11.7865 73.9321 11.6865 74.2121 11.6865C74.4921 11.6865 74.7387 11.7865 74.9521 11.9865C75.1787 12.1865 75.2921 12.4332 75.2921 12.7265C75.2921 13.0332 75.1787 13.2865 74.9521 13.4865C74.7387 13.6732 74.4921 13.7665 74.2121 13.7665C73.9321 13.7665 73.6721 13.6665 73.4321 13.4665C73.2054 13.2665 73.0921 13.0199 73.0921 12.7265ZM79.9702 15.7265L80.1502 18.1265L80.0502 17.8065C80.2635 17.2999 80.5702 16.8732 80.9702 16.5265C81.3835 16.1665 81.8102 15.8932 82.2502 15.7065C82.7035 15.5065 83.0969 15.4065 83.4302 15.4065L83.3302 17.2465C82.7035 17.2065 82.1502 17.3265 81.6702 17.6065C81.2035 17.8865 80.8302 18.2599 80.5502 18.7265C80.2835 19.1932 80.1502 19.6932 80.1502 20.2265V24.0065H78.3102V15.7265H79.9702ZM89.3182 24.2065C88.3715 24.2065 87.5582 24.0199 86.8782 23.6465C86.1982 23.2599 85.6715 22.7399 85.2982 22.0865C84.9382 21.4199 84.7582 20.6599 84.7582 19.8065C84.7582 18.9932 84.9648 18.2532 85.3782 17.5865C85.7915 16.9199 86.3448 16.3865 87.0382 15.9865C87.7315 15.5865 88.5048 15.3865 89.3582 15.3865C90.4515 15.3865 91.3582 15.7065 92.0782 16.3465C92.7982 16.9865 93.2848 17.8665 93.5382 18.9865L86.7182 21.3865L86.2782 20.2865L91.8782 18.2465L91.4782 18.5065C91.3182 18.0665 91.0515 17.6865 90.6782 17.3665C90.3048 17.0332 89.8182 16.8665 89.2182 16.8665C88.7115 16.8665 88.2582 16.9932 87.8582 17.2465C87.4582 17.4865 87.1448 17.8199 86.9182 18.2465C86.6915 18.6732 86.5782 19.1599 86.5782 19.7065C86.5782 20.2799 86.6982 20.7865 86.9382 21.2265C87.1782 21.6532 87.5048 21.9932 87.9182 22.2465C88.3448 22.4865 88.8248 22.6065 89.3582 22.6065C89.7182 22.6065 90.0648 22.5399 90.3982 22.4065C90.7448 22.2732 91.0648 22.0999 91.3582 21.8865L92.2182 23.2665C91.8048 23.5465 91.3382 23.7732 90.8182 23.9465C90.3115 24.1199 89.8115 24.2065 89.3182 24.2065ZM101.217 24.0065L107.537 8.94653H107.657L113.957 24.0065H111.737L107.017 11.9865L108.397 11.0865L103.117 24.0065H101.217ZM104.917 18.5265H110.297L110.937 20.2065H104.357L104.917 18.5265Z" fill="#333333"/>
<path d="M65.5666 32.1265C65.0733 31.8732 64.5333 31.6532 63.9466 31.4665C63.3599 31.2799 62.7866 31.1865 62.2266 31.1865C61.4533 31.1865 60.8333 31.3665 60.3666 31.7265C59.9133 32.0865 59.6866 32.5665 59.6866 33.1665C59.6866 33.6199 59.8333 34.0065 60.1266 34.3265C60.4199 34.6332 60.8066 34.8999 61.2866 35.1265C61.7666 35.3532 62.2666 35.5665 62.7866 35.7665C63.2399 35.9399 63.6866 36.1332 64.1266 36.3465C64.5666 36.5599 64.9599 36.8265 65.3066 37.1465C65.6666 37.4665 65.9466 37.8599 66.1466 38.3265C66.3599 38.7932 66.4666 39.3732 66.4666 40.0665C66.4666 40.8265 66.2733 41.5199 65.8866 42.1465C65.5133 42.7732 64.9733 43.2665 64.2666 43.6265C63.5599 43.9865 62.7199 44.1665 61.7466 44.1665C61.1066 44.1665 60.4933 44.0932 59.9066 43.9465C59.3333 43.7999 58.7999 43.6132 58.3066 43.3865C57.8133 43.1465 57.3733 42.8999 56.9866 42.6465L57.8466 41.1265C58.1666 41.3532 58.5333 41.5732 58.9466 41.7865C59.3599 41.9865 59.7933 42.1532 60.2466 42.2865C60.6999 42.4065 61.1399 42.4665 61.5666 42.4665C62.0199 42.4665 62.4666 42.3865 62.9066 42.2265C63.3599 42.0532 63.7333 41.7932 64.0266 41.4465C64.3199 41.0999 64.4666 40.6399 64.4666 40.0665C64.4666 39.5732 64.3333 39.1665 64.0666 38.8465C63.8133 38.5132 63.4733 38.2332 63.0466 38.0065C62.6199 37.7665 62.1666 37.5532 61.6866 37.3665C61.2333 37.1932 60.7733 37.0065 60.3066 36.8065C59.8399 36.5932 59.4066 36.3399 59.0066 36.0465C58.6066 35.7399 58.2866 35.3665 58.0466 34.9265C57.8066 34.4865 57.6866 33.9532 57.6866 33.3265C57.6866 32.5665 57.8666 31.9065 58.2266 31.3465C58.5999 30.7732 59.1066 30.3265 59.7466 30.0065C60.3866 29.6732 61.1199 29.4932 61.9466 29.4665C62.8799 29.4665 63.6999 29.5799 64.4066 29.8065C65.1266 30.0332 65.7599 30.3132 66.3066 30.6465L65.5666 32.1265ZM73.1072 44.2065C72.1606 44.2065 71.3472 44.0199 70.6672 43.6465C69.9872 43.2599 69.4606 42.7399 69.0872 42.0865C68.7272 41.4199 68.5472 40.6599 68.5472 39.8065C68.5472 38.9932 68.7539 38.2532 69.1672 37.5865C69.5806 36.9199 70.1339 36.3865 70.8272 35.9865C71.5206 35.5865 72.2939 35.3865 73.1472 35.3865C74.2406 35.3865 75.1472 35.7065 75.8672 36.3465C76.5872 36.9865 77.0739 37.8665 77.3272 38.9865L70.5072 41.3865L70.0672 40.2865L75.6672 38.2465L75.2672 38.5065C75.1072 38.0665 74.8406 37.6865 74.4672 37.3665C74.0939 37.0332 73.6072 36.8665 73.0072 36.8665C72.5006 36.8665 72.0472 36.9932 71.6472 37.2465C71.2472 37.4865 70.9339 37.8199 70.7072 38.2465C70.4806 38.6732 70.3672 39.1599 70.3672 39.7065C70.3672 40.2799 70.4872 40.7865 70.7272 41.2265C70.9672 41.6532 71.2939 41.9932 71.7072 42.2465C72.1339 42.4865 72.6139 42.6065 73.1472 42.6065C73.5072 42.6065 73.8539 42.5399 74.1872 42.4065C74.5339 42.2732 74.8539 42.0999 75.1472 41.8865L76.0072 43.2665C75.5939 43.5465 75.1272 43.7732 74.6072 43.9465C74.1006 44.1199 73.6006 44.2065 73.1072 44.2065ZM81.3178 35.7265L81.4778 37.7465L81.3978 37.4265C81.6645 36.8132 82.0978 36.3265 82.6978 35.9665C83.2978 35.5932 83.9912 35.4065 84.7778 35.4065C85.5645 35.4065 86.2045 35.6399 86.6978 36.1065C87.2045 36.5599 87.4645 37.1532 87.4778 37.8865V44.0065H85.5978V38.5465C85.5845 38.0932 85.4512 37.7265 85.1978 37.4465C84.9578 37.1532 84.5778 37.0065 84.0578 37.0065C83.5778 37.0065 83.1445 37.1399 82.7578 37.4065C82.3712 37.6732 82.0645 38.0399 81.8378 38.5065C81.6245 38.9732 81.5178 39.5132 81.5178 40.1265V44.0065H79.6578V35.7265H81.3178ZM90.7125 35.7265H92.5725V44.0065H90.7125V35.7265ZM90.5725 32.7265C90.5725 32.4332 90.6859 32.1865 90.9125 31.9865C91.1525 31.7865 91.4125 31.6865 91.6925 31.6865C91.9725 31.6865 92.2192 31.7865 92.4325 31.9865C92.6592 32.1865 92.7725 32.4332 92.7725 32.7265C92.7725 33.0332 92.6592 33.2865 92.4325 33.4865C92.2192 33.6732 91.9725 33.7665 91.6925 33.7665C91.4125 33.7665 91.1525 33.6665 90.9125 33.4665C90.6859 33.2665 90.5725 33.0199 90.5725 32.7265ZM95.0707 39.7865C95.0707 38.9599 95.264 38.2132 95.6507 37.5465C96.0507 36.8799 96.5973 36.3532 97.2907 35.9665C97.984 35.5799 98.7707 35.3865 99.6507 35.3865C100.557 35.3865 101.351 35.5799 102.031 35.9665C102.711 36.3532 103.237 36.8799 103.611 37.5465C103.984 38.2132 104.171 38.9599 104.171 39.7865C104.171 40.6132 103.984 41.3665 103.611 42.0465C103.237 42.7132 102.704 43.2399 102.011 43.6265C101.331 44.0132 100.537 44.2065 99.6307 44.2065C98.7507 44.2065 97.964 44.0265 97.2707 43.6665C96.5907 43.2932 96.0507 42.7799 95.6507 42.1265C95.264 41.4599 95.0707 40.6799 95.0707 39.7865ZM96.9307 39.8065C96.9307 40.3399 97.0507 40.8265 97.2907 41.2665C97.5307 41.6932 97.8507 42.0332 98.2507 42.2865C98.664 42.5399 99.1173 42.6665 99.6107 42.6665C100.131 42.6665 100.591 42.5399 100.991 42.2865C101.404 42.0332 101.724 41.6932 101.951 41.2665C102.177 40.8265 102.291 40.3399 102.291 39.8065C102.291 39.2732 102.177 38.7932 101.951 38.3665C101.724 37.9265 101.404 37.5799 100.991 37.3265C100.591 37.0599 100.131 36.9265 99.6107 36.9265C99.104 36.9265 98.644 37.0599 98.2307 37.3265C97.8307 37.5932 97.5107 37.9465 97.2707 38.3865C97.044 38.8132 96.9307 39.2865 96.9307 39.8065ZM108.349 35.7265L108.529 38.1265L108.429 37.8065C108.642 37.2999 108.949 36.8732 109.349 36.5265C109.762 36.1665 110.189 35.8932 110.629 35.7065C111.082 35.5065 111.476 35.4065 111.809 35.4065L111.709 37.2465C111.082 37.2065 110.529 37.3265 110.049 37.6065C109.582 37.8865 109.209 38.2599 108.929 38.7265C108.662 39.1932 108.529 39.6932 108.529 40.2265V44.0065H106.689V35.7265H108.349Z" fill="url(#paint1_linear_72_56)"/>
<defs>
<linearGradient id="paint0_linear_72_56" x1="9.17941" y1="0.320187" x2="9.17941" y2="64.3523" gradientUnits="userSpaceOnUse">
<stop stop-color="#B02FFF"/>
<stop offset="1" stop-color="#694281"/>
</linearGradient>
<linearGradient id="paint1_linear_72_56" x1="56.0066" y1="49.0065" x2="119.779" y2="19.2687" gradientUnits="userSpaceOnUse">
<stop stop-color="#4C066D"/>
<stop offset="1" stop-color="#7700B0"/>
</linearGradient>
</defs>
</svg>
